<svg t="1765938109870" class="icon" viewBox="0 0 1024 1024" version="1.1" xmlns="http://www.w3.org/2000/svg" p-id="9809"
     width="64" height="64">
    <path d="M225.778 98h572.444C887.57 98 960 170.43 960 259.778v503.521c0 89.348-72.43 161.778-161.778 161.778H225.778C136.43 925.077 64 852.647 64 763.299V259.778C64 170.43 136.43 98 225.778 98z"
          fill="#1EE2A9" p-id="9810"></path>
    <path d="M596.936 443.747l-119.05 75.189V368.558z" fill="#FFFFFF" p-id="9811"></path>
    <path d="M481.414 386.453v116.51l92.238-58.255-92.238-58.255z m-18.666 150.378V352.586l145.86 92.122-145.86 92.123z"
          fill="#834038" p-id="9812"></path>
    <path d="M64 738.889h896v18.94c0 89.347-72.43 161.777-161.778 161.777H225.778C136.43 919.606 64 847.176 64 757.83v-18.94z"
          fill="#FFFFFF" p-id="9813"></path>
    <path d="M207.242 851.15c-10.382 0-18.798-8.416-18.798-18.797 0-10.382 8.416-18.797 18.798-18.797 10.381 0 18.797 8.415 18.797 18.797 0 10.381-8.416 18.797-18.797 18.797z m62.222 0c-10.382 0-18.797-8.416-18.797-18.797 0-10.382 8.415-18.797 18.797-18.797 10.381 0 18.797 8.415 18.797 18.797 0 10.381-8.416 18.797-18.797 18.797z m62.179-31.372h494.993c6.92 0 12.531 5.61 12.531 12.531s-5.61 12.532-12.531 12.532H331.643c-6.921 0-12.532-5.61-12.532-12.532 0-6.92 5.61-12.531 12.532-12.531z"
          fill="#834038" p-id="9814"></path>
    <path d="M88.889 714H935.11V259.778c0-75.602-61.287-136.89-136.889-136.89H225.778c-75.602 0-136.89 61.288-136.89 136.89V714z m846.222 24.889H88.89v24.41c0 75.602 61.287 136.889 136.889 136.889h572.444c75.602 0 136.89-61.287 136.89-136.889v-24.41zM225.778 98h572.444C887.57 98 960 170.43 960 259.778v503.521c0 89.348-72.43 161.778-161.778 161.778H225.778C136.43 925.077 64 852.647 64 763.299V259.778C64 170.43 136.43 98 225.778 98z"
          fill="#834038" p-id="9815"></path>
</svg>